<svg width="68" height="16" viewBox="0 0 68 16" fill="none" xmlns="http://www.w3.org/2000/svg">
<path d="M0.512 0.464H3.347V12.812H9.71V15.5H0.512V0.464ZM20.9562 15.836C19.8362 15.836 18.7932 15.633 17.8272 15.227C16.8752 14.821 16.0492 14.268 15.3492 13.568C14.6492 12.854 14.0962 12.021 13.6902 11.069C13.2982 10.103 13.1022 9.074 13.1022 7.982C13.1022 6.89 13.2982 5.868 13.6902 4.916C14.0962 3.95 14.6492 3.117 15.3492 2.417C16.0492 1.703 16.8752 1.143 17.8272 0.737C18.7932 0.330999 19.8362 0.127999 20.9562 0.127999C22.0762 0.127999 23.1122 0.330999 24.0642 0.737C25.0302 1.143 25.8632 1.703 26.5632 2.417C27.2632 3.117 27.8092 3.95 28.2012 4.916C28.6072 5.868 28.8102 6.89 28.8102 7.982C28.8102 9.074 28.6072 10.103 28.2012 11.069C27.8092 12.021 27.2632 12.854 26.5632 13.568C25.8632 14.268 25.0302 14.821 24.0642 15.227C23.1122 15.633 22.0762 15.836 20.9562 15.836ZM20.9562 13.148C21.6562 13.148 22.3072 13.022 22.9092 12.77C23.5252 12.518 24.0572 12.168 24.5052 11.72C24.9672 11.272 25.3242 10.733 25.5762 10.103C25.8422 9.459 25.9752 8.752 25.9752 7.982C25.9752 7.212 25.8422 6.512 25.5762 5.882C25.3242 5.238 24.9672 4.692 24.5052 4.244C24.0572 3.796 23.5252 3.446 22.9092 3.194C22.3072 2.942 21.6562 2.816 20.9562 2.816C20.2562 2.816 19.5982 2.942 18.9822 3.194C18.3802 3.446 17.8482 3.796 17.3862 4.244C16.9382 4.692 16.5812 5.238 16.3152 5.882C16.0632 6.512 15.9372 7.212 15.9372 7.982C15.9372 8.752 16.0632 9.459 16.3152 10.103C16.5812 10.733 16.9382 11.272 17.3862 11.72C17.8482 12.168 18.3802 12.518 18.9822 12.77C19.5982 13.022 20.2562 13.148 20.9562 13.148ZM40.4547 7.247H47.8257C47.8677 7.415 47.9027 7.618 47.9307 7.856C47.9587 8.094 47.9727 8.332 47.9727 8.57C47.9727 9.536 47.8257 10.446 47.5317 11.3C47.2377 12.154 46.7757 12.917 46.1457 13.589C45.4737 14.303 44.6687 14.856 43.7307 15.248C42.7927 15.64 41.7217 15.836 40.5177 15.836C39.4257 15.836 38.3967 15.64 37.4307 15.248C36.4647 14.856 35.6247 14.31 34.9107 13.61C34.1967 12.91 33.6297 12.084 33.2097 11.132C32.7897 10.166 32.5797 9.116 32.5797 7.982C32.5797 6.848 32.7897 5.805 33.2097 4.853C33.6297 3.887 34.1967 3.054 34.9107 2.354C35.6247 1.654 36.4647 1.108 37.4307 0.715999C38.3967 0.323999 39.4257 0.127999 40.5177 0.127999C41.7357 0.127999 42.8207 0.337999 43.7727 0.758C44.7387 1.178 45.5647 1.759 46.2507 2.501L44.2977 4.412C43.8077 3.894 43.2617 3.502 42.6597 3.236C42.0577 2.956 41.3367 2.816 40.4967 2.816C39.8107 2.816 39.1597 2.942 38.5437 3.194C37.9277 3.432 37.3887 3.775 36.9267 4.223C36.4647 4.671 36.0937 5.217 35.8137 5.861C35.5477 6.491 35.4147 7.198 35.4147 7.982C35.4147 8.766 35.5477 9.48 35.8137 10.124C36.0937 10.754 36.4647 11.293 36.9267 11.741C37.4027 12.189 37.9487 12.539 38.5647 12.791C39.1807 13.029 39.8387 13.148 40.5387 13.148C41.3367 13.148 42.0087 13.036 42.5547 12.812C43.1147 12.574 43.5907 12.273 43.9827 11.909C44.2627 11.657 44.5007 11.342 44.6967 10.964C44.9067 10.572 45.0677 10.138 45.1797 9.662H40.4547V7.247ZM59.8496 15.836C58.7296 15.836 57.6866 15.633 56.7206 15.227C55.7686 14.821 54.9426 14.268 54.2426 13.568C53.5426 12.854 52.9896 12.021 52.5836 11.069C52.1916 10.103 51.9956 9.074 51.9956 7.982C51.9956 6.89 52.1916 5.868 52.5836 4.916C52.9896 3.95 53.5426 3.117 54.2426 2.417C54.9426 1.703 55.7686 1.143 56.7206 0.737C57.6866 0.330999 58.7296 0.127999 59.8496 0.127999C60.9696 0.127999 62.0056 0.330999 62.9576 0.737C63.9236 1.143 64.7566 1.703 65.4566 2.417C66.1566 3.117 66.7026 3.95 67.0946 4.916C67.5006 5.868 67.7036 6.89 67.7036 7.982C67.7036 9.074 67.5006 10.103 67.0946 11.069C66.7026 12.021 66.1566 12.854 65.4566 13.568C64.7566 14.268 63.9236 14.821 62.9576 15.227C62.0056 15.633 60.9696 15.836 59.8496 15.836ZM59.8496 13.148C60.5496 13.148 61.2006 13.022 61.8026 12.77C62.4186 12.518 62.9506 12.168 63.3986 11.72C63.8606 11.272 64.2176 10.733 64.4696 10.103C64.7356 9.459 64.8686 8.752 64.8686 7.982C64.8686 7.212 64.7356 6.512 64.4696 5.882C64.2176 5.238 63.8606 4.692 63.3986 4.244C62.9506 3.796 62.4186 3.446 61.8026 3.194C61.2006 2.942 60.5496 2.816 59.8496 2.816C59.1496 2.816 58.4916 2.942 57.8756 3.194C57.2736 3.446 56.7416 3.796 56.2796 4.244C55.8316 4.692 55.4746 5.238 55.2086 5.882C54.9566 6.512 54.8306 7.212 54.8306 7.982C54.8306 8.752 54.9566 9.459 55.2086 10.103C55.4746 10.733 55.8316 11.272 56.2796 11.72C56.7416 12.168 57.2736 12.518 57.8756 12.77C58.4916 13.022 59.1496 13.148 59.8496 13.148Z" fill="#E1F16B"/>
<path d="M0.512 0.464V-0.0360003H0.0120001V0.464H0.512ZM3.347 0.464H3.847V-0.0360003H3.347V0.464ZM3.347 12.812H2.847V13.312H3.347V12.812ZM9.71 12.812H10.21V12.312H9.71V12.812ZM9.71 15.5V16H10.21V15.5H9.71ZM0.512 15.5H0.0120001V16H0.512V15.5ZM0.512 0.964H3.347V-0.0360003H0.512V0.964ZM2.847 0.464V12.812H3.847V0.464H2.847ZM3.347 13.312H9.71V12.312H3.347V13.312ZM9.21 12.812V15.5H10.21V12.812H9.21ZM9.71 15H0.512V16H9.71V15ZM1.012 15.5V0.464H0.0120001V15.5H1.012ZM17.8272 15.227L17.631 15.6869L17.6334 15.6879L17.8272 15.227ZM15.3492 13.568L14.9921 13.9181L14.9956 13.9216L15.3492 13.568ZM13.6902 11.069L13.2268 11.257L13.2302 11.2651L13.6902 11.069ZM13.6902 4.916L13.2292 4.72227L13.2278 4.72563L13.6902 4.916ZM15.3492 2.417L15.7027 2.77057L15.7062 2.76704L15.3492 2.417ZM17.8272 0.737L17.6334 0.27605L17.631 0.277078L17.8272 0.737ZM24.0642 0.737L23.868 1.19693L23.8704 1.19794L24.0642 0.737ZM26.5632 2.417L26.2061 2.76705L26.2096 2.77055L26.5632 2.417ZM28.2012 4.916L27.7378 5.10404L27.7412 5.11214L28.2012 4.916ZM28.2012 11.069L27.7402 10.8753L27.7388 10.8786L28.2012 11.069ZM26.5632 13.568L26.9167 13.9216L26.9202 13.918L26.5632 13.568ZM24.0642 15.227L23.8704 14.7661L23.868 14.7671L24.0642 15.227ZM22.9092 12.77L22.7198 12.3072L22.7161 12.3088L22.9092 12.77ZM24.5052 11.72L24.157 11.361L24.1516 11.3664L24.5052 11.72ZM25.5762 10.103L25.114 9.91211L25.1119 9.9173L25.5762 10.103ZM25.5762 5.882L25.1104 6.06426L25.1155 6.07649L25.5762 5.882ZM24.5052 4.244L24.1516 4.5976L24.1571 4.60295L24.5052 4.244ZM22.9092 3.194L22.7161 3.65524L22.7198 3.65677L22.9092 3.194ZM18.9822 3.194L18.7928 2.73121L18.7891 2.73278L18.9822 3.194ZM17.3862 4.244L17.038 3.88501L17.0326 3.89045L17.3862 4.244ZM16.3152 5.882L15.853 5.69111L15.8509 5.6963L16.3152 5.882ZM16.3152 10.103L15.8494 10.2853L15.8545 10.2975L16.3152 10.103ZM17.3862 11.72L17.0326 12.0736L17.0381 12.079L17.3862 11.72ZM18.9822 12.77L18.7891 13.2312L18.7928 13.2328L18.9822 12.77ZM20.9562 15.336C19.8981 15.336 18.9214 15.1445 18.0209 14.7661L17.6334 15.6879C18.6649 16.1215 19.7743 16.336 20.9562 16.336V15.336ZM18.0233 14.7671C17.1274 14.385 16.3555 13.8672 15.7027 13.2144L14.9956 13.9216C15.7428 14.6688 16.6229 15.257 17.631 15.6869L18.0233 14.7671ZM15.7062 13.218C15.0513 12.55 14.5325 11.7696 14.1501 10.8729L13.2302 11.2651C13.6598 12.2724 14.247 13.158 14.9921 13.918L15.7062 13.218ZM14.1535 10.881C13.7868 9.97753 13.6022 9.01266 13.6022 7.982H12.6022C12.6022 9.13534 12.8095 10.2285 13.2268 11.257L14.1535 10.881ZM13.6022 7.982C13.6022 6.95129 13.7868 5.99438 14.1525 5.10637L13.2278 4.72563C12.8095 5.74162 12.6022 6.82871 12.6022 7.982H13.6022ZM14.1511 5.10973C14.5335 4.19992 15.0512 3.4221 15.7027 2.77055L14.9956 2.06345C14.2471 2.8119 13.6588 3.70008 13.2292 4.72227L14.1511 5.10973ZM15.7062 2.76704C16.3587 2.10151 17.1295 1.57812 18.0233 1.19692L17.631 0.277078C16.6209 0.707881 15.7396 1.30449 14.9921 2.06696L15.7062 2.76704ZM18.0209 1.19794C18.9214 0.819459 19.8981 0.627999 20.9562 0.627999V-0.372001C19.7743 -0.372001 18.6649 -0.157461 17.6334 0.276057L18.0209 1.19794ZM20.9562 0.627999C22.0143 0.627999 22.983 0.819476 23.868 1.19692L24.2603 0.277078C23.2413 -0.157478 22.138 -0.372001 20.9562 -0.372001V0.627999ZM23.8704 1.19794C24.7782 1.57945 25.5549 2.10275 26.2061 2.76704L26.9202 2.06696C26.1714 1.30325 25.2822 0.706548 24.2579 0.276056L23.8704 1.19794ZM26.2096 2.77055C26.8598 3.42078 27.3696 4.19663 27.7379 5.10401L28.6645 4.72799C28.2487 3.70337 27.6665 2.81322 26.9167 2.06345L26.2096 2.77055ZM27.7412 5.11214C28.1193 5.99875 28.3102 6.95364 28.3102 7.982H29.3102C29.3102 6.82636 29.095 5.73725 28.6611 4.71986L27.7412 5.11214ZM28.3102 7.982C28.3102 9.01033 28.1194 9.97319 27.7402 10.8753L28.6621 11.2627C29.095 10.2328 29.3102 9.13767 29.3102 7.982H28.3102ZM27.7388 10.8786C27.3706 11.7729 26.8597 12.5513 26.2061 13.218L26.9202 13.918C27.6666 13.1567 28.2477 12.2691 28.6635 11.2594L27.7388 10.8786ZM26.2096 13.2144C25.5581 13.866 24.7802 14.3837 23.8704 14.7661L24.2579 15.6879C25.2801 15.2583 26.1683 14.67 26.9167 13.9216L26.2096 13.2144ZM23.868 14.7671C22.983 15.1445 22.0143 15.336 20.9562 15.336V16.336C22.138 16.336 23.2413 16.1215 24.2603 15.6869L23.868 14.7671ZM20.9562 13.648C21.7176 13.648 22.4347 13.5106 23.1022 13.2312L22.7161 12.3088C22.1796 12.5334 21.5947 12.648 20.9562 12.648V13.648ZM23.0985 13.2328C23.7728 12.9569 24.3614 12.5709 24.8587 12.0736L24.1516 11.3664C23.7529 11.7651 23.2775 12.0791 22.7198 12.3072L23.0985 13.2328ZM24.8532 12.079C25.3684 11.5794 25.7637 10.9804 26.0404 10.2887L25.1119 9.9173C24.8846 10.4856 24.5659 10.9646 24.1571 11.361L24.8532 12.079ZM26.0383 10.2939C26.3318 9.58328 26.4752 8.81059 26.4752 7.982H25.4752C25.4752 8.69341 25.3525 9.33472 25.114 9.91212L26.0383 10.2939ZM26.4752 7.982C26.4752 7.15359 26.3318 6.38635 26.0368 5.68751L25.1155 6.07649C25.3525 6.63764 25.4752 7.27041 25.4752 7.982H26.4752ZM26.0418 5.6998C25.7657 4.9942 25.3704 4.38652 24.8532 3.88505L24.1571 4.60295C24.5639 4.99748 24.8826 5.4818 25.1105 6.0642L26.0418 5.6998ZM24.8587 3.89045C24.3614 3.39314 23.7728 3.00708 23.0985 2.73123L22.7198 3.65677C23.2775 3.88492 23.7529 4.19886 24.1516 4.59755L24.8587 3.89045ZM23.1022 2.73278C22.4347 2.45337 21.7176 2.316 20.9562 2.316V3.316C21.5947 3.316 22.1796 3.43063 22.7161 3.65522L23.1022 2.73278ZM20.9562 2.316C20.1946 2.316 19.472 2.45338 18.7928 2.73123L19.1715 3.65677C19.7243 3.43061 20.3177 3.316 20.9562 3.316V2.316ZM18.7891 2.73278C18.1303 3.00854 17.5456 3.39296 17.0381 3.88505L17.7342 4.60295C18.1508 4.19904 18.63 3.88346 19.1752 3.65522L18.7891 2.73278ZM17.0326 3.89045C16.5336 4.38944 16.1416 4.99237 15.853 5.69112L16.7773 6.07288C17.0207 5.48363 17.3427 4.99456 17.7397 4.59755L17.0326 3.89045ZM15.8509 5.6963C15.5723 6.39279 15.4372 7.15691 15.4372 7.982H16.4372C16.4372 7.26709 16.554 6.63121 16.7794 6.06769L15.8509 5.6963ZM15.4372 7.982C15.4372 8.80729 15.5724 9.57691 15.8495 10.2852L16.7808 9.9208C16.5539 9.34109 16.4372 8.69671 16.4372 7.982H15.4372ZM15.8545 10.2975C16.1436 10.9822 16.5355 11.5764 17.0326 12.0736L17.7397 11.3664C17.3408 10.9676 17.0187 10.4838 16.7758 9.90851L15.8545 10.2975ZM17.0381 12.079C17.5456 12.571 18.1303 12.9555 18.7891 13.2312L19.1752 12.3088C18.63 12.0805 18.1508 11.765 17.7342 11.361L17.0381 12.079ZM18.7928 13.2328C19.472 13.5106 20.1946 13.648 20.9562 13.648V12.648C20.3177 12.648 19.7243 12.5334 19.1715 12.3072L18.7928 13.2328ZM40.4547 7.247V6.747H39.9547V7.247H40.4547ZM47.8257 7.247L48.3107 7.12573L48.216 6.747H47.8257V7.247ZM47.9307 7.856L47.4341 7.91442V7.91442L47.9307 7.856ZM47.5317 11.3L47.0589 11.1372L47.5317 11.3ZM46.1457 13.589L46.5098 13.9317L46.5104 13.931L46.1457 13.589ZM43.7307 15.248L43.5379 14.7867L43.7307 15.248ZM37.4307 15.248L37.2426 15.7113L37.4307 15.248ZM34.9107 13.61L34.5606 13.967L34.9107 13.61ZM33.2097 11.132L32.7511 11.3314L32.7522 11.3338L33.2097 11.132ZM33.2097 4.853L33.6671 5.05482L33.6682 5.05236L33.2097 4.853ZM34.9107 2.354L34.5606 1.99696L34.9107 2.354ZM37.4307 0.715999L37.2426 0.252692L37.4307 0.715999ZM43.7727 0.757999L43.5708 1.21547L43.5733 1.21653L43.7727 0.757999ZM46.2507 2.501L46.6003 2.85837L46.9477 2.51845L46.6178 2.16157L46.2507 2.501ZM44.2977 4.412L43.9344 4.7556L44.2839 5.12503L44.6474 4.76937L44.2977 4.412ZM42.6597 3.236L42.4488 3.68944L42.4576 3.69334L42.6597 3.236ZM38.5437 3.194L38.7239 3.66049L38.733 3.65677L38.5437 3.194ZM36.9267 4.223L37.2747 4.58195L36.9267 4.223ZM35.8137 5.861L35.3551 5.66162L35.353 5.66651L35.8137 5.861ZM35.8137 10.124L35.3514 10.3149L35.3568 10.3271L35.8137 10.124ZM36.9267 11.741L36.5785 12.1L36.584 12.1051L36.9267 11.741ZM38.5647 12.791L38.3753 13.2539L38.3845 13.2574L38.5647 12.791ZM42.5547 12.812L42.7445 13.2746L42.7502 13.2722L42.5547 12.812ZM43.9827 11.909L43.6481 11.5373L43.6424 11.5426L43.9827 11.909ZM44.6967 10.964L44.2559 10.7279L44.2528 10.7338L44.6967 10.964ZM45.1797 9.662L45.6664 9.77652L45.811 9.162H45.1797V9.662ZM40.4547 9.662H39.9547V10.162H40.4547V9.662ZM40.4547 7.747H47.8257V6.747H40.4547V7.747ZM47.3406 7.36827C47.3759 7.50944 47.4077 7.6902 47.4341 7.91442L48.4272 7.79758C48.3976 7.5458 48.3594 7.32056 48.3107 7.12573L47.3406 7.36827ZM47.4341 7.91442C47.4598 8.13317 47.4727 8.35166 47.4727 8.57H48.4727C48.4727 8.31234 48.4575 8.05483 48.4272 7.79758L47.4341 7.91442ZM47.4727 8.57C47.4727 9.48448 47.3336 10.3391 47.0589 11.1372L48.0044 11.4628C48.3177 10.5529 48.4727 9.58752 48.4727 8.57H47.4727ZM47.0589 11.1372C46.7883 11.9232 46.3636 12.6254 45.7809 13.247L46.5104 13.931C47.1877 13.2086 47.687 12.3848 48.0044 11.4628L47.0589 11.1372ZM45.7816 13.2463C45.1595 13.9073 44.4135 14.4207 43.5379 14.7867L43.9235 15.7093C44.9238 15.2913 45.7878 14.6987 46.5098 13.9317L45.7816 13.2463ZM43.5379 14.7867C42.6711 15.1489 41.6675 15.336 40.5177 15.336V16.336C41.7759 16.336 42.9142 16.1311 43.9235 15.7093L43.5379 14.7867ZM40.5177 15.336C39.487 15.336 38.5221 15.1513 37.6187 14.7847L37.2426 15.7113C38.2712 16.1287 39.3643 16.336 40.5177 16.336V15.336ZM37.6187 14.7847C36.7105 14.4161 35.9262 13.9054 35.2607 13.253L34.5606 13.967C35.3232 14.7146 36.2188 15.2959 37.2426 15.7113L37.6187 14.7847ZM35.2607 13.253C34.5939 12.5992 34.0625 11.8265 33.6671 10.9302L32.7522 11.3338C33.1968 12.3415 33.7994 13.2208 34.5606 13.967L35.2607 13.253ZM33.6682 10.9326C33.2776 10.0342 33.0797 9.05272 33.0797 7.982H32.0797C32.0797 9.17928 32.3017 10.2978 32.7511 11.3314L33.6682 10.9326ZM33.0797 7.982C33.0797 6.91119 33.2776 5.93771 33.6671 5.05482L32.7522 4.65118C32.3017 5.67229 32.0797 6.78481 32.0797 7.982H33.0797ZM33.6682 5.05236C34.0639 4.14221 34.5951 3.36357 35.2607 2.71104L34.5606 1.99696C33.7982 2.74443 33.1954 3.63179 32.7511 4.65364L33.6682 5.05236ZM35.2607 2.71104C35.9262 2.05862 36.7105 1.54785 37.6187 1.17931L37.2426 0.252692C36.2188 0.668148 35.3232 1.24937 34.5606 1.99696L35.2607 2.71104ZM37.6187 1.17931C38.5221 0.812682 39.487 0.627999 40.5177 0.627999V-0.372001C39.3643 -0.372001 38.2712 -0.164684 37.2426 0.252692L37.6187 1.17931ZM40.5177 0.627999C41.6779 0.627999 42.6923 0.827886 43.5708 1.21546L43.9745 0.300541C42.949 -0.151888 41.7934 -0.372001 40.5177 -0.372001V0.627999ZM43.5733 1.21653C44.4785 1.61009 45.2466 2.15149 45.8835 2.84043L46.6178 2.16157C45.8827 1.36651 44.9988 0.745909 43.972 0.299464L43.5733 1.21653ZM45.901 2.14362L43.948 4.05462L44.6474 4.76937L46.6003 2.85837L45.901 2.14362ZM44.6609 4.0684C44.1291 3.50622 43.5294 3.07366 42.8617 2.77866L42.4576 3.69334C42.9939 3.93034 43.4862 4.28178 43.9344 4.7556L44.6609 4.0684ZM42.8705 2.78264C42.1874 2.4649 41.3908 2.316 40.4967 2.316V3.316C41.2825 3.316 41.9279 3.4471 42.4488 3.68936L42.8705 2.78264ZM40.4967 2.316C39.7478 2.316 39.0323 2.45388 38.3543 2.73123L38.733 3.65677C39.287 3.43011 39.8735 3.316 40.4967 3.316V2.316ZM38.3635 2.7276C37.6865 2.98914 37.09 3.36809 36.5786 3.86405L37.2747 4.58195C37.6873 4.18191 38.1688 3.87486 38.7239 3.6604L38.3635 2.7276ZM36.5786 3.86405C36.0656 4.36151 35.6588 4.96323 35.3551 5.66164L36.2722 6.06036C36.5285 5.47077 36.8637 4.98049 37.2747 4.58195L36.5786 3.86405ZM35.353 5.66651C35.0575 6.36642 34.9147 7.14091 34.9147 7.982H35.9147C35.9147 7.25509 36.0378 6.61558 36.2743 6.05549L35.353 5.66651ZM34.9147 7.982C34.9147 8.82332 35.0576 9.60322 35.3515 10.3149L36.2758 9.93312C36.0377 9.35678 35.9147 8.70868 35.9147 7.982H34.9147ZM35.3568 10.3271C35.6609 11.0113 36.0675 11.6043 36.5786 12.1L37.2747 11.382C36.8618 10.9817 36.5265 10.4967 36.2706 9.92093L35.3568 10.3271ZM36.584 12.1051C37.1054 12.5959 37.7037 12.979 38.3753 13.2538L38.754 12.3282C38.1937 12.099 37.6999 11.7821 37.2693 11.3769L36.584 12.1051ZM38.3845 13.2574C39.0613 13.5189 39.7808 13.648 40.5387 13.648V12.648C39.8965 12.648 39.3 12.5391 38.7449 12.3246L38.3845 13.2574ZM40.5387 13.648C41.3802 13.648 42.1211 13.5303 42.7444 13.2746L42.3649 12.3494C41.8963 12.5417 41.2931 12.648 40.5387 12.648V13.648ZM42.7502 13.2722C43.3563 13.0146 43.8831 12.6838 44.3229 12.2754L43.6424 11.5426C43.2983 11.8622 42.873 12.1334 42.3591 12.3518L42.7502 13.2722ZM44.3171 12.2806C44.6472 11.9836 44.9204 11.6186 45.1405 11.1942L44.2528 10.7338C44.0809 11.0654 43.8781 11.3304 43.6482 11.5374L44.3171 12.2806ZM45.1374 11.2001C45.3699 10.7662 45.5454 10.2907 45.6664 9.77652L44.693 9.54748C44.5899 9.98529 44.4434 10.3778 44.2559 10.7279L45.1374 11.2001ZM45.1797 9.162H40.4547V10.162H45.1797V9.162ZM40.9547 9.662V7.247H39.9547V9.662H40.9547ZM56.7206 15.227L56.5245 15.6869L56.5269 15.6879L56.7206 15.227ZM54.2426 13.568L53.8856 13.9181L53.8891 13.9216L54.2426 13.568ZM52.5836 11.069L52.1203 11.257L52.1237 11.2651L52.5836 11.069ZM52.5836 4.916L52.1227 4.72227L52.1213 4.72563L52.5836 4.916ZM54.2426 2.417L54.5962 2.77057L54.5997 2.76704L54.2426 2.417ZM56.7206 0.737L56.5269 0.27605L56.5245 0.277078L56.7206 0.737ZM62.9576 0.737L62.7615 1.19693L62.7639 1.19794L62.9576 0.737ZM65.4566 2.417L65.0996 2.76705L65.1031 2.77055L65.4566 2.417ZM67.0946 4.916L66.6313 5.10404L66.6347 5.11214L67.0946 4.916ZM67.0946 11.069L66.6337 10.8753L66.6323 10.8786L67.0946 11.069ZM65.4566 13.568L65.8102 13.9216L65.8137 13.918L65.4566 13.568ZM62.9576 15.227L62.7639 14.7661L62.7615 14.7671L62.9576 15.227ZM61.8026 12.77L61.6133 12.3072L61.6096 12.3088L61.8026 12.77ZM63.3986 11.72L63.0505 11.361L63.0451 11.3664L63.3986 11.72ZM64.4696 10.103L64.0075 9.91211L64.0054 9.9173L64.4696 10.103ZM64.4696 5.882L64.0038 6.06426L64.009 6.07649L64.4696 5.882ZM63.3986 4.244L63.045 4.5976L63.0506 4.60295L63.3986 4.244ZM61.8026 3.194L61.6096 3.65524L61.6133 3.65677L61.8026 3.194ZM57.8756 3.194L57.6863 2.73121L57.6826 2.73278L57.8756 3.194ZM56.2796 4.244L55.9315 3.88501L55.9261 3.89045L56.2796 4.244ZM55.2086 5.882L54.7465 5.69111L54.7444 5.6963L55.2086 5.882ZM55.2086 10.103L54.7428 10.2853L54.748 10.2975L55.2086 10.103ZM56.2796 11.72L55.926 12.0736L55.9316 12.079L56.2796 11.72ZM57.8756 12.77L57.6826 13.2312L57.6863 13.2328L57.8756 12.77ZM59.8496 15.336C58.7915 15.336 57.8149 15.1445 56.9144 14.7661L56.5269 15.6879C57.5584 16.1215 58.6677 16.336 59.8496 16.336V15.336ZM56.9168 14.7671C56.0208 14.385 55.249 13.8672 54.5962 13.2144L53.8891 13.9216C54.6363 14.6688 55.5164 15.257 56.5245 15.6869L56.9168 14.7671ZM54.5997 13.218C53.9448 12.55 53.426 11.7696 53.0436 10.8729L52.1237 11.2651C52.5533 12.2724 53.1405 13.158 53.8856 13.918L54.5997 13.218ZM53.0469 10.881C52.6803 9.97753 52.4956 9.01266 52.4956 7.982H51.4956C51.4956 9.13534 51.7029 10.2285 52.1203 11.257L53.0469 10.881ZM52.4956 7.982C52.4956 6.95129 52.6803 5.99438 53.046 5.10637L52.1213 4.72563C51.7029 5.74162 51.4956 6.82871 51.4956 7.982H52.4956ZM53.0446 5.10973C53.427 4.19992 53.9446 3.4221 54.5962 2.77055L53.8891 2.06345C53.1406 2.8119 52.5523 3.70008 52.1227 4.72227L53.0446 5.10973ZM54.5997 2.76704C55.2521 2.10151 56.0229 1.57812 56.9168 1.19692L56.5245 0.277078C55.5143 0.707881 54.6331 1.30449 53.8856 2.06696L54.5997 2.76704ZM56.9144 1.19794C57.8149 0.819459 58.7915 0.627999 59.8496 0.627999V-0.372001C58.6677 -0.372001 57.5584 -0.157461 56.5269 0.276057L56.9144 1.19794ZM59.8496 0.627999C60.9078 0.627999 61.8764 0.819476 62.7615 1.19692L63.1538 0.277078C62.1348 -0.157478 61.0315 -0.372001 59.8496 -0.372001V0.627999ZM62.7639 1.19794C63.6716 1.57945 64.4483 2.10275 65.0996 2.76704L65.8137 2.06696C65.0649 1.30325 64.1756 0.706548 63.1514 0.276056L62.7639 1.19794ZM65.1031 2.77055C65.7533 3.42078 66.2631 4.19663 66.6313 5.10401L67.5579 4.72799C67.1422 3.70337 66.56 2.81322 65.8102 2.06345L65.1031 2.77055ZM66.6347 5.11214C67.0128 5.99875 67.2036 6.95364 67.2036 7.982H68.2036C68.2036 6.82636 67.9884 5.73725 67.5546 4.71986L66.6347 5.11214ZM67.2036 7.982C67.2036 9.01033 67.0128 9.97319 66.6337 10.8753L67.5556 11.2627C67.9884 10.2328 68.2036 9.13767 68.2036 7.982H67.2036ZM66.6323 10.8786C66.2641 11.7729 65.7532 12.5513 65.0996 13.218L65.8137 13.918C66.5601 13.1567 67.1412 12.2691 67.557 11.2594L66.6323 10.8786ZM65.1031 13.2144C64.4515 13.866 63.6737 14.3837 62.7639 14.7661L63.1514 15.6879C64.1735 15.2583 65.0617 14.67 65.8102 13.9216L65.1031 13.2144ZM62.7615 14.7671C61.8764 15.1445 60.9078 15.336 59.8496 15.336V16.336C61.0315 16.336 62.1348 16.1215 63.1538 15.6869L62.7615 14.7671ZM59.8496 13.648C60.6111 13.648 61.3282 13.5106 61.9957 13.2312L61.6096 12.3088C61.073 12.5334 60.4882 12.648 59.8496 12.648V13.648ZM61.9919 13.2328C62.6662 12.9569 63.2549 12.5709 63.7522 12.0736L63.0451 11.3664C62.6464 11.7651 62.171 12.0791 61.6133 12.3072L61.9919 13.2328ZM63.7467 12.079C64.2619 11.5794 64.6572 10.9804 64.9339 10.2887L64.0054 9.9173C63.7781 10.4856 63.4594 10.9646 63.0506 11.361L63.7467 12.079ZM64.9318 10.2939C65.2253 9.58328 65.3686 8.81059 65.3686 7.982H64.3686C64.3686 8.69341 64.246 9.33472 64.0075 9.91212L64.9318 10.2939ZM65.3686 7.982C65.3686 7.15359 65.2253 6.38635 64.9303 5.68751L64.009 6.07649C64.2459 6.63764 64.3686 7.27041 64.3686 7.982H65.3686ZM64.9353 5.6998C64.6591 4.9942 64.2638 4.38652 63.7467 3.88505L63.0506 4.60295C63.4574 4.99748 63.7761 5.4818 64.004 6.0642L64.9353 5.6998ZM63.7522 3.89045C63.2549 3.39314 62.6662 3.00708 61.9919 2.73123L61.6133 3.65677C62.171 3.88492 62.6464 4.19886 63.0451 4.59755L63.7522 3.89045ZM61.9957 2.73278C61.3282 2.45337 60.6111 2.316 59.8496 2.316V3.316C60.4882 3.316 61.073 3.43063 61.6096 3.65522L61.9957 2.73278ZM59.8496 2.316C59.0881 2.316 58.3655 2.45338 57.6863 2.73123L58.0649 3.65677C58.6178 3.43061 59.2111 3.316 59.8496 3.316V2.316ZM57.6826 2.73278C57.0238 3.00854 56.439 3.39296 55.9316 3.88505L56.6277 4.60295C57.0442 4.19904 57.5235 3.88346 58.0687 3.65522L57.6826 2.73278ZM55.9261 3.89045C55.4271 4.38944 55.0351 4.99237 54.7465 5.69112L55.6708 6.07288C55.9142 5.48363 56.2362 4.99456 56.6332 4.59755L55.9261 3.89045ZM54.7444 5.6963C54.4658 6.39279 54.3306 7.15691 54.3306 7.982H55.3306C55.3306 7.26709 55.4475 6.63121 55.6729 6.06769L54.7444 5.6963ZM54.3306 7.982C54.3306 8.80729 54.4659 9.57691 54.743 10.2852L55.6743 9.9208C55.4474 9.34109 55.3306 8.69671 55.3306 7.982H54.3306ZM54.748 10.2975C55.0371 10.9822 55.4289 11.5764 55.9261 12.0736L56.6332 11.3664C56.2343 10.9676 55.9122 10.4838 55.6693 9.90851L54.748 10.2975ZM55.9316 12.079C56.439 12.571 57.0238 12.9555 57.6826 13.2312L58.0687 12.3088C57.5235 12.0805 57.0442 11.765 56.6277 11.361L55.9316 12.079ZM57.6863 13.2328C58.3655 13.5106 59.0881 13.648 59.8496 13.648V12.648C59.2111 12.648 58.6178 12.5334 58.0649 12.3072L57.6863 13.2328Z" fill="#E1F16B"/>
</svg>
